<svg width="16" height="16" viewBox="0 0 16 16" fill="none" xmlns="http://www.w3.org/2000/svg">
<path d="M9.99992 15.1663H5.99992C2.37992 15.1663 0.833252 13.6197 0.833252 9.99967V5.99967C0.833252 2.37967 2.37992 0.833008 5.99992 0.833008H9.99992C13.6199 0.833008 15.1666 2.37967 15.1666 5.99967V9.99967C15.1666 13.6197 13.6199 15.1663 9.99992 15.1663ZM5.99992 1.83301C2.92659 1.83301 1.83325 2.92634 1.83325 5.99967V9.99967C1.83325 13.073 2.92659 14.1663 5.99992 14.1663H9.99992C13.0733 14.1663 14.1666 13.073 14.1666 9.99967V5.99967C14.1666 2.92634 13.0733 1.83301 9.99992 1.83301H5.99992Z" fill="#0C5EFF"/>
<path d="M12 10.1663C11.7267 10.1663 11.5 9.93968 11.5 9.66634C11.5 9.20634 11.1267 8.83301 10.6667 8.83301H5.33333C4.87333 8.83301 4.5 9.20634 4.5 9.66634C4.5 9.93968 4.27333 10.1663 4 10.1663C3.72667 10.1663 3.5 9.93968 3.5 9.66634V5.16634C3.5 4.15301 4.32 3.33301 5.33333 3.33301H10.6667C11.68 3.33301 12.5 4.15301 12.5 5.16634V9.66634C12.5 9.93968 12.2733 10.1663 12 10.1663ZM5.33333 7.83301H10.6667C10.9667 7.83301 11.2533 7.90634 11.5 8.03301V5.16634C11.5 4.70634 11.1267 4.33301 10.6667 4.33301H5.33333C4.87333 4.33301 4.5 4.70634 4.5 5.16634V8.03301C4.74667 7.90634 5.03333 7.83301 5.33333 7.83301Z" fill="#0C5EFF"/>
<path d="M12.6667 11H12C11.7267 11 11.5 10.7733 11.5 10.5C11.5 10.2267 11.7267 10 12 10H12.6667C12.94 10 13.1667 10.2267 13.1667 10.5C13.1667 10.7733 12.94 11 12.6667 11Z" fill="#0C5EFF"/>
<path d="M3.99992 11H3.33325C3.05992 11 2.83325 10.7733 2.83325 10.5C2.83325 10.2267 3.05992 10 3.33325 10H3.99992C4.27325 10 4.49992 10.2267 4.49992 10.5C4.49992 10.7733 4.27325 11 3.99992 11Z" fill="#0C5EFF"/>
<path d="M12 9.83333C11.7267 9.83333 11.5 9.60667 11.5 9.33333V7.33333C11.5 6.87333 11.1267 6.5 10.6667 6.5H5.33333C4.87333 6.5 4.5 6.87333 4.5 7.33333V9.33333C4.5 9.60667 4.27333 9.83333 4 9.83333C3.72667 9.83333 3.5 9.60667 3.5 9.33333V7.33333C3.5 6.32 4.32 5.5 5.33333 5.5H10.6667C11.68 5.5 12.5 6.32 12.5 7.33333V9.33333C12.5 9.60667 12.2733 9.83333 12 9.83333Z" fill="#0C5EFF"/>
<path d="M8 12.6663C6.98 12.6663 6.12002 11.953 5.89335 10.9997H4C3.72667 10.9997 3.5 10.773 3.5 10.4997V9.66634C3.5 8.65301 4.32 7.83301 5.33333 7.83301H10.6667C11.68 7.83301 12.5 8.65301 12.5 9.66634V10.4997C12.5 10.773 12.2733 10.9997 12 10.9997H10.1066C9.87998 11.953 9.02 12.6663 8 12.6663ZM4.5 9.99967H6.33333C6.60667 9.99967 6.83333 10.2263 6.83333 10.4997C6.83333 11.1397 7.36 11.6663 8 11.6663C8.64 11.6663 9.16667 11.1397 9.16667 10.4997C9.16667 10.2263 9.39333 9.99967 9.66667 9.99967H11.5V9.66634C11.5 9.20634 11.1267 8.83301 10.6667 8.83301H5.33333C4.87333 8.83301 4.5 9.20634 4.5 9.66634V9.99967Z" fill="#0C5EFF"/>
</svg>
