<svg width="20" height="20" viewBox="0 0 20 20" fill="none" xmlns="http://www.w3.org/2000/svg">
<path d="M12.5 18.9584H7.50002C2.97502 18.9584 1.04169 17.025 1.04169 12.5V7.50002C1.04169 2.97502 2.97502 1.04169 7.50002 1.04169H12.5C17.025 1.04169 18.9584 2.97502 18.9584 7.50002V12.5C18.9584 17.025 17.025 18.9584 12.5 18.9584ZM7.50002 2.29169C3.65835 2.29169 2.29169 3.65835 2.29169 7.50002V12.5C2.29169 16.3417 3.65835 17.7084 7.50002 17.7084H12.5C16.3417 17.7084 17.7084 16.3417 17.7084 12.5V7.50002C17.7084 3.65835 16.3417 2.29169 12.5 2.29169H7.50002Z" fill="#121212"/>
<path d="M10.0001 15.7917C9.80008 15.7917 9.60009 15.7417 9.43342 15.65C8.46675 15.125 6.75842 14.5583 5.68342 14.4166L5.52509 14.3917C4.70842 14.2917 4.05841 13.5583 4.05841 12.7167V6.29999C4.05841 5.82499 4.25843 5.36666 4.6001 5.04999C4.9501 4.73332 5.40008 4.575 5.88341 4.61667C7.10008 4.71667 8.86676 5.3 9.90843 5.95L9.99174 6L10.0251 5.975C11.0751 5.31667 12.8418 4.725 14.0668 4.61667C14.0834 4.61667 14.1334 4.61667 14.1501 4.61667C14.5834 4.575 15.0501 4.74166 15.3917 5.04999C15.7417 5.36666 15.9334 5.80832 15.9334 6.29165V12.7C15.9334 13.5333 15.2834 14.2667 14.4584 14.375L14.2834 14.4C13.2168 14.5417 11.5001 15.1083 10.5501 15.6333C10.3917 15.75 10.2001 15.7917 10.0001 15.7917ZM5.74176 5.87498C5.62509 5.87498 5.52506 5.91665 5.45006 5.98332C5.3584 6.06665 5.31675 6.18333 5.31675 6.30833V12.725C5.31675 12.925 5.5001 13.1333 5.69176 13.1583L5.8501 13.1833C7.06676 13.35 8.93343 13.9583 10.0168 14.55C11.0251 13.9667 12.9001 13.3417 14.1251 13.1833L14.3084 13.1583C14.5001 13.1333 14.6834 12.925 14.6834 12.725V6.31665C14.6834 6.18331 14.6334 6.07499 14.5501 5.99166C14.4584 5.90833 14.3417 5.87499 14.2084 5.88332C14.1917 5.88332 14.1418 5.88332 14.1251 5.88332C13.1584 5.96666 11.5668 6.49999 10.7001 7.04999L10.6167 7.09998C10.2501 7.32498 9.73342 7.32499 9.38342 7.10832L9.2584 7.03333C8.3834 6.48333 6.79175 5.95832 5.78342 5.87498C5.76675 5.87498 5.75843 5.87498 5.74176 5.87498Z" fill="#121212"/>
<path d="M10 15.3417C9.65833 15.3417 9.375 15.0583 9.375 14.7167V6.75C9.375 6.40833 9.65833 6.125 10 6.125C10.3417 6.125 10.625 6.40833 10.625 6.75V14.7167C10.625 15.0667 10.3417 15.3417 10 15.3417Z" fill="#121212"/>
</svg>
