<svg width="18" height="16" viewBox="0 0 18 16" fill="none" xmlns="http://www.w3.org/2000/svg">
<path d="M16.3654 6.39636H14.7253V7.99938H16.3654V6.39636Z" fill="#FFD862"/>
<path d="M16.3618 11.1991H14.7217H13.0894H11.4493V12.8022V14.3975H9.81707H8.17699H6.54472V12.8022H8.17699H9.81707V11.1991V9.59613H8.17699V11.1991H6.54472H4.90463H3.27236H1.63227V9.59613H0V11.1991V12.8022H1.63227V14.3975H3.27236V16.0006H4.90463H6.54472H8.17699H9.81707H11.4493H13.0894H14.7217V14.3975H16.3618V12.8022H17.9941V11.1991V9.59613H16.3618V11.1991Z" fill="#FFD862"/>
<path d="M8.17915 6.39636H6.53906V7.99938H8.17915V6.39636Z" fill="#FFD862"/>
<path d="M14.7242 1.603V0H13.0919H11.4518H9.81957H8.17948H6.54721H4.90712H3.27485V1.603H1.63477V4.8014H3.27485H4.90712H6.54721H8.17948H9.81957H11.4518H13.0919H14.7242H16.3643V1.603H14.7242Z" fill="#FFD862"/>
<path d="M18.0001 3.19769H16.3601V4.80071H18.0001V3.19769Z" fill="#FFD862"/>
<path d="M1.64009 3.19769H0V4.80071H1.64009V3.19769Z" fill="#FFD862"/>
</svg>
