<svg width="24" height="24" viewBox="0 0 24 24" fill="none" xmlns="http://www.w3.org/2000/svg">
<path d="M9 6H7C6.44772 6 6 6.44772 6 7V9C6 9.55228 6.44772 10 7 10H9C9.55228 10 10 9.55228 10 9V7C10 6.44772 9.55228 6 9 6Z" stroke="#121212" stroke-linecap="round" stroke-linejoin="round"/>
<path d="M17 6H15C14.4477 6 14 6.44772 14 7V9C14 9.55228 14.4477 10 15 10H17C17.5523 10 18 9.55228 18 9V7C18 6.44772 17.5523 6 17 6Z" stroke="#121212" stroke-linecap="round" stroke-linejoin="round"/>
<path d="M17 14H15C14.4477 14 14 14.4477 14 15V17C14 17.5523 14.4477 18 15 18H17C17.5523 18 18 17.5523 18 17V15C18 14.4477 17.5523 14 17 14Z" stroke="#121212" stroke-linecap="round" stroke-linejoin="round"/>
<path d="M9 14H7C6.44772 14 6 14.4477 6 15V17C6 17.5523 6.44772 18 7 18H9C9.55228 18 10 17.5523 10 17V15C10 14.4477 9.55228 14 9 14Z" stroke="#121212" stroke-linecap="round" stroke-linejoin="round"/>
</svg>
