<svg width="38" height="40" viewBox="0 0 38 40" fill="none" xmlns="http://www.w3.org/2000/svg">
<path d="M37.4331 12.5723H36.0653C35.8966 12.5723 35.7602 12.4485 35.7602 12.2953V9.2549C35.7602 9.10174 35.6238 8.97791 35.455 8.97791H34.0872C33.9185 8.97791 33.7821 8.85407 33.7821 8.70091V7.45932C33.7821 7.30616 33.6457 7.18233 33.4769 7.18233H32.1091C31.9404 7.18233 31.804 7.0585 31.804 6.90533V5.66374C31.804 5.51058 31.6676 5.38675 31.4988 5.38675H30.131C29.9623 5.38675 29.8259 5.26291 29.8259 5.10975V3.86816C29.8259 3.715 29.6895 3.59116 29.5207 3.59116H28.1529C27.9842 3.59116 27.8478 3.46733 27.8478 3.31417V2.07258C27.8478 1.91942 27.7114 1.79558 27.5426 1.79558H24.1932C24.0244 1.79558 23.888 1.67174 23.888 1.51858V0.276992C23.888 0.12383 23.7516 0 23.5828 0H14.1519C13.9831 0 13.8467 0.12383 13.8467 0.276992V1.51858C13.8467 1.67174 13.7103 1.79558 13.5416 1.79558H10.1957C10.0269 1.79558 9.8905 1.91942 9.8905 2.07258V3.31417C9.8905 3.46733 9.75409 3.59116 9.58536 3.59116H8.21756C8.04883 3.59116 7.91241 3.715 7.91241 3.86816V5.10975C7.91241 5.26291 7.77599 5.38675 7.60725 5.38675H6.23946C6.07073 5.38675 5.9343 5.51058 5.9343 5.66374V6.90533C5.9343 7.0585 5.79788 7.18233 5.62915 7.18233H4.26135C4.09262 7.18233 3.9562 7.30616 3.9562 7.45932V8.70091C3.9562 8.85407 3.81979 8.97791 3.65106 8.97791H2.28326C2.11453 8.97791 1.9781 9.10174 1.9781 9.2549V12.2921C1.9781 12.4452 1.84168 12.5691 1.67295 12.5691H0.305154C0.136423 12.5691 0 12.6929 0 12.8461V17.8124C0 17.9656 0.136423 18.0894 0.305154 18.0894H1.67295C1.84168 18.0894 1.9781 18.2133 1.9781 18.3664V19.608C1.9781 19.7612 2.11453 19.885 2.28326 19.885H3.65106C3.81979 19.885 3.9562 20.0088 3.9562 20.162V21.4036C3.9562 21.5568 4.09262 21.6806 4.26135 21.6806H5.62915C5.79788 21.6806 5.9343 21.8044 5.9343 21.9576V23.1992C5.9343 23.3523 6.07073 23.4762 6.23946 23.4762H7.60725C7.77599 23.4762 7.91241 23.6 7.91241 23.7532V24.9948C7.91241 25.1479 8.04883 25.2718 8.21756 25.2718H9.58536C9.75409 25.2718 9.8905 25.3956 9.8905 25.5488V26.7903C9.8905 26.9435 10.0269 27.0673 10.1957 27.0673H11.5635C11.7322 27.0673 11.8686 27.1912 11.8686 27.3443V28.5859C11.8686 28.7391 12.005 28.8629 12.1738 28.8629H13.5416C13.7103 28.8629 13.8467 28.9867 13.8467 29.1399V30.2479C13.8467 30.4011 13.7103 30.5249 13.5416 30.5249H12.1738C12.005 30.5249 11.8686 30.6487 11.8686 30.8019V35.7682C11.8686 35.9214 12.005 36.0452 12.1738 36.0452H13.5416C13.7103 36.0452 13.8467 36.1691 13.8467 36.3222V37.5638C13.8467 37.717 13.9831 37.8408 14.1519 37.8408H15.5197C15.6884 37.8408 15.8248 37.9647 15.8248 38.1178V39.3594C15.8248 39.5126 15.9612 39.6364 16.13 39.6364H21.6012C21.7699 39.6364 21.9063 39.5126 21.9063 39.3594V38.1178C21.9063 37.9647 22.0427 37.8408 22.2115 37.8408H23.5793C23.748 37.8408 23.8844 37.717 23.8844 37.5638V36.3222C23.8844 36.1691 24.0208 36.0452 24.1896 36.0452H25.5574C25.7261 36.0452 25.8625 35.9214 25.8625 35.7682V30.8019C25.8625 30.6487 25.7261 30.5249 25.5574 30.5249H24.1896C24.0208 30.5249 23.8844 30.4011 23.8844 30.2479V29.1367C23.8844 28.9835 24.0208 28.8597 24.1896 28.8597H25.5574C25.7261 28.8597 25.8625 28.7358 25.8625 28.5827V27.3411C25.8625 27.1879 25.9989 27.0641 26.1677 27.0641H27.5355C27.7042 27.0641 27.8406 26.9402 27.8406 26.7871V25.5455C27.8406 25.3923 27.977 25.2685 28.1458 25.2685H29.5136C29.6823 25.2685 29.8187 25.1447 29.8187 24.9915V23.7499C29.8187 23.5968 29.9551 23.4729 30.1239 23.4729H31.4917C31.6604 23.4729 31.7968 23.3491 31.7968 23.1959V21.9641C31.7968 21.8109 31.9332 21.6871 32.102 21.6871H33.4698C33.6385 21.6871 33.7749 21.5633 33.7749 21.4101V20.1685C33.7749 20.0154 33.9113 19.8915 34.0801 19.8915H35.4479C35.6166 19.8915 35.753 19.7677 35.753 19.6145V18.3729C35.753 18.2198 35.8894 18.0959 36.0582 18.0959H37.426C37.5947 18.0959 37.7311 17.9721 37.7311 17.8189V12.8526C37.7383 12.6962 37.6019 12.5723 37.4331 12.5723ZM35.3079 17.9623H33.9401C33.7713 17.9623 33.6349 18.0862 33.6349 18.2393V19.4809C33.6349 19.6341 33.4985 19.7579 33.3297 19.7579H31.962C31.7932 19.7579 31.6568 19.8817 31.6568 20.0349V21.2765C31.6568 21.4297 31.5204 21.5535 31.3516 21.5535H29.9838C29.8151 21.5535 29.6787 21.6773 29.6787 21.8305V23.0721C29.6787 23.2252 29.5423 23.3491 29.3736 23.3491H28.0058C27.837 23.3491 27.7006 23.4729 27.7006 23.6261V24.8677C27.7006 25.0208 27.5642 25.1447 27.3954 25.1447H26.0276C25.8589 25.1447 25.7225 25.2685 25.7225 25.4217V26.6633C25.7225 26.8164 25.5861 26.9402 25.4173 26.9402H24.1932C24.0244 26.9402 23.888 26.8164 23.888 26.6633V23.7564C23.888 23.6033 24.0244 23.4794 24.1932 23.4794H25.561C25.7297 23.4794 25.8661 23.3556 25.8661 23.2024V20.1653C25.8661 20.0121 26.0025 19.8883 26.1712 19.8883H27.539C27.7078 19.8883 27.8442 19.7644 27.8442 19.6113V16.5741C27.8442 16.4209 27.9806 16.2971 28.1494 16.2971H35.3079C35.4766 16.2971 35.613 16.4209 35.613 16.5741V17.6853C35.613 17.8385 35.4766 17.9623 35.3079 17.9623ZM21.454 37.7235H16.2736C16.1048 37.7235 15.9684 37.5997 15.9684 37.4465V36.2049C15.9684 36.0518 15.832 35.9279 15.6633 35.9279H14.2955C14.1267 35.9279 13.9903 35.8041 13.9903 35.6509V30.9485C13.9903 30.7954 14.1267 30.6715 14.2955 30.6715H15.6633C15.832 30.6715 15.9684 30.5477 15.9684 30.3945V29.1529C15.9684 28.9998 16.1048 28.876 16.2736 28.876H21.454C21.6227 28.876 21.7591 28.9998 21.7591 29.1529V30.3945C21.7591 30.5477 21.8955 30.6715 22.0643 30.6715H23.4321C23.6008 30.6715 23.7372 30.7954 23.7372 30.9485V35.6509C23.7372 35.8041 23.6008 35.9279 23.4321 35.9279H22.0643C21.8955 35.9279 21.7591 36.0518 21.7591 36.2049V37.4465C21.7591 37.5997 21.6227 37.7235 21.454 37.7235ZM10.0305 24.8709V23.6293C10.0305 23.4762 9.8941 23.3523 9.72536 23.3523H8.35757C8.18884 23.3523 8.05241 23.2285 8.05241 23.0753V21.8338C8.05241 21.6806 7.91599 21.5568 7.74726 21.5568H6.37946C6.21073 21.5568 6.07432 21.4329 6.07432 21.2798V20.0382C6.07432 19.885 5.9379 19.7612 5.76917 19.7612H4.40137C4.23264 19.7612 4.09621 19.6373 4.09621 19.4842V18.2426C4.09621 18.0894 3.95979 17.9656 3.79106 17.9656H2.42326C2.25453 17.9656 2.11811 17.8418 2.11811 17.6886V16.5806C2.11811 16.4275 2.25453 16.3036 2.42326 16.3036H9.58177C9.7505 16.3036 9.88692 16.4275 9.88692 16.5806V19.6178C9.88692 19.7709 10.0233 19.8948 10.1921 19.8948H11.5599C11.7286 19.8948 11.865 20.0186 11.865 20.1718V23.209C11.865 23.3621 12.0014 23.486 12.1702 23.486H13.538C13.7067 23.486 13.8431 23.6098 13.8431 23.7629V26.6665C13.8431 26.8197 13.7067 26.9435 13.538 26.9435H12.3174C12.1486 26.9435 12.0122 26.8197 12.0122 26.6665V25.4249C12.0122 25.2718 11.8758 25.1479 11.7071 25.1479H10.3393C10.1669 25.1479 10.0305 25.0241 10.0305 24.8709ZM23.7372 20.0349V23.0721C23.7372 23.2252 23.6008 23.3491 23.4321 23.3491H22.0643C21.8955 23.3491 21.7591 23.4729 21.7591 23.6261V26.6665C21.7591 26.8197 21.6227 26.9435 21.454 26.9435H16.2736C16.1048 26.9435 15.9684 26.8197 15.9684 26.6665V23.6293C15.9684 23.4762 15.832 23.3523 15.6633 23.3523H14.2955C14.1267 23.3523 13.9903 23.2285 13.9903 23.0753V20.0382C13.9903 19.885 13.8539 19.7612 13.6852 19.7612H12.3174C12.1486 19.7612 12.0122 19.6373 12.0122 19.4842V16.5806C12.0122 16.4275 12.1486 16.3036 12.3174 16.3036H25.4138C25.5825 16.3036 25.7189 16.4275 25.7189 16.5806V19.4874C25.7189 19.6406 25.5825 19.7644 25.4138 19.7644H24.0424C23.8736 19.7579 23.7372 19.8817 23.7372 20.0349Z" fill="#B4B4B4"/>
</svg>
