<svg width="20" height="20" viewBox="0 0 20 20" fill="none" xmlns="http://www.w3.org/2000/svg">
<path d="M1.66666 7.49999V5.41666C1.66666 3.34166 3.34166 1.66666 5.41666 1.66666H7.49999" stroke="#121212" stroke-width="1.25" stroke-linecap="round" stroke-linejoin="round"/>
<path d="M12.5 1.66666H14.5833C16.6583 1.66666 18.3333 3.34166 18.3333 5.41666V7.49999" stroke="#121212" stroke-width="1.25" stroke-linecap="round" stroke-linejoin="round"/>
<path d="M18.3333 13.3333V14.5833C18.3333 16.6583 16.6583 18.3333 14.5833 18.3333H13.3333" stroke="#121212" stroke-width="1.25" stroke-linecap="round" stroke-linejoin="round"/>
<path d="M7.49999 18.3333H5.41666C3.34166 18.3333 1.66666 16.6583 1.66666 14.5833V12.5" stroke="#121212" stroke-width="1.25" stroke-linecap="round" stroke-linejoin="round"/>
<g opacity="0.4">
<path d="M14.1667 7.91666V12.0833C14.1667 13.75 13.3333 14.5833 11.6667 14.5833H8.33334C6.66668 14.5833 5.83334 13.75 5.83334 12.0833V7.91666C5.83334 6.24999 6.66668 5.41666 8.33334 5.41666H11.6667C13.3333 5.41666 14.1667 6.24999 14.1667 7.91666Z" stroke="#121212" stroke-width="1.25" stroke-linecap="round" stroke-linejoin="round"/>
<path d="M15.8333 10H4.16666" stroke="#121212" stroke-width="1.25" stroke-linecap="round" stroke-linejoin="round"/>
</g>
</svg>
