<svg width="16" height="16" viewBox="0 0 16 16" fill="none" xmlns="http://www.w3.org/2000/svg">
<path d="M10.0002 15.1666H6.00016C2.38016 15.1666 0.833496 13.6199 0.833496 9.99992V5.99992C0.833496 2.37992 2.38016 0.833252 6.00016 0.833252H7.3335C7.60683 0.833252 7.8335 1.05992 7.8335 1.33325C7.8335 1.60659 7.60683 1.83325 7.3335 1.83325H6.00016C2.92683 1.83325 1.8335 2.92659 1.8335 5.99992V9.99992C1.8335 13.0733 2.92683 14.1666 6.00016 14.1666H10.0002C13.0735 14.1666 14.1668 13.0733 14.1668 9.99992V8.66659C14.1668 8.39325 14.3935 8.16659 14.6668 8.16659C14.9402 8.16659 15.1668 8.39325 15.1668 8.66659V9.99992C15.1668 13.6199 13.6202 15.1666 10.0002 15.1666Z" fill="#0C5EFF"/>
<path d="M5.66639 11.7934C5.25973 11.7934 4.88639 11.6467 4.61306 11.38C4.28639 11.0534 4.14639 10.58 4.21973 10.08L4.50639 8.07337C4.55973 7.68671 4.81306 7.18671 5.08639 6.91337L10.3397 1.66004C11.6664 0.333372 13.0131 0.333372 14.3397 1.66004C15.0664 2.38671 15.3931 3.12671 15.3264 3.86671C15.2664 4.46671 14.9464 5.05337 14.3397 5.65337L9.08639 10.9067C8.81306 11.18 8.31306 11.4334 7.92639 11.4867L5.91973 11.7734C5.83306 11.7934 5.74639 11.7934 5.66639 11.7934ZM11.0464 2.36671L5.79306 7.62004C5.66639 7.74671 5.51973 8.04004 5.49306 8.21337L5.20639 10.22C5.17973 10.4134 5.21973 10.5734 5.31973 10.6734C5.41973 10.7734 5.57973 10.8134 5.77306 10.7867L7.77973 10.5C7.95306 10.4734 8.25306 10.3267 8.37306 10.2L13.6264 4.94671C14.0597 4.51337 14.2864 4.12671 14.3197 3.76671C14.3597 3.33337 14.1331 2.87337 13.6264 2.36004C12.5597 1.29337 11.8264 1.59337 11.0464 2.36671Z" fill="#0C5EFF"/>
<path d="M13.2335 6.55343C13.1869 6.55343 13.1402 6.54677 13.1002 6.53343C11.3469 6.0401 9.95353 4.64677 9.4602 2.89343C9.38687 2.62677 9.5402 2.35343 9.80687 2.27343C10.0735 2.2001 10.3469 2.35343 10.4202 2.6201C10.8202 4.0401 11.9469 5.16677 13.3669 5.56677C13.6335 5.6401 13.7869 5.9201 13.7135 6.18677C13.6535 6.41343 13.4535 6.55343 13.2335 6.55343Z" fill="#0C5EFF"/>
</svg>
