<svg width="17" height="16" viewBox="0 0 17 16" fill="none" xmlns="http://www.w3.org/2000/svg">
<g clip-path="url(#clip0_6_17404)">
<path d="M1.57994 9.79833L1.57857 9.79614C1.29856 9.3505 1.12842 8.70411 1.12842 8.00291C1.12842 7.30238 1.29827 6.65311 1.57952 6.20233C3.30581 3.45083 5.71446 2 8.13221 2C10.5503 2 12.9586 3.45118 14.6769 6.20167L14.6783 6.20386C14.9583 6.6495 15.1284 7.29589 15.1284 7.99709C15.1284 8.69796 14.9584 9.34753 14.6769 9.79833C12.9586 12.5488 10.5503 14 8.13221 14C5.70606 14 3.29792 12.5483 1.57994 9.79833Z" stroke="#0C5EFF" stroke-width="2"/>
<circle cx="8.12842" cy="8" r="2" fill="#0C5EFF"/>
</g>
<defs>
<clipPath id="clip0_6_17404">
<rect width="16" height="16" fill="white" transform="translate(0.128418)"/>
</clipPath>
</defs>
</svg>
