<svg width="17" height="16" viewBox="0 0 17 16" fill="none" xmlns="http://www.w3.org/2000/svg">
<rect x="0.0246582" width="16" height="16" rx="8" fill="#E4EDFF"/>
<path d="M7.2292 12V6.18182H8.60042V12H7.2292ZM7.9186 5.35606C7.70143 5.35606 7.51456 5.28409 7.35799 5.14015C7.20143 4.99369 7.12314 4.81818 7.12314 4.61364C7.12314 4.40657 7.20143 4.23106 7.35799 4.08712C7.51456 3.94066 7.70143 3.86742 7.9186 3.86742C8.13829 3.86742 8.32516 3.94066 8.4792 4.08712C8.63577 4.23106 8.71405 4.40657 8.71405 4.61364C8.71405 4.81818 8.63577 4.99369 8.4792 5.14015C8.32516 5.28409 8.13829 5.35606 7.9186 5.35606Z" fill="#0C5EFF"/>
</svg>
