<svg width="18" height="18" viewBox="0 0 18 18" fill="none" xmlns="http://www.w3.org/2000/svg">
<path d="M16.8519 1.56059L16.1794 0.888052C15.9121 0.620673 15.5566 0.47348 15.1786 0.47348C14.8006 0.47348 14.4452 0.620673 14.1779 0.887984L13.6687 1.3972L13.6021 1.33065C13.4695 1.19803 13.2544 1.198 13.1217 1.33065L2.32415 12.1282L2.32452 12.1284C2.29358 12.1593 2.2682 12.196 2.25084 12.2376L1.26224 14.6059L0.239608 17.0559C0.186546 17.183 0.215489 17.3296 0.312881 17.427C0.377866 17.492 0.464796 17.5265 0.553152 17.5265C0.597211 17.5265 0.641644 17.518 0.683971 17.5003L3.134 16.4776C3.13407 16.4776 3.13417 16.4775 3.13417 16.4775L5.50229 15.489C5.54384 15.4717 5.5806 15.4463 5.61151 15.4154L5.61164 15.4158L16.4093 4.61818C16.4729 4.55448 16.5088 4.46806 16.5088 4.37797C16.5088 4.28788 16.4729 4.20146 16.4093 4.13777L16.3427 4.07122L16.8519 3.56204C17.4037 3.01023 17.4037 2.1124 16.8519 1.56059ZM1.18496 16.5549L1.694 15.3354L2.40449 16.0459L1.18496 16.5549ZM3.08236 15.7629L1.97694 14.6575L2.68257 12.9671L4.77282 15.0573L3.08236 15.7629ZM5.37148 14.6951L3.04479 12.3684L12.2792 3.13399L14.6059 5.46067L5.37148 14.6951ZM15.0863 4.98026L12.7596 2.65358L13.3619 2.05129L15.6886 4.37797L15.0863 4.98026ZM16.3715 3.08157L15.8672 3.58582L14.1541 1.87264L14.6583 1.36839C14.7973 1.22942 14.9821 1.15288 15.1786 1.15288C15.3752 1.15288 15.56 1.22942 15.6989 1.36839L16.3714 2.0409C16.6584 2.32784 16.6584 2.79466 16.3715 3.08157Z" fill="#8A8989"/>
<path d="M8.88372 7.24701L3.97058 12.1602C3.83793 12.2928 3.83793 12.5079 3.97058 12.6406C4.03693 12.707 4.12386 12.7401 4.21079 12.7401C4.29772 12.7401 4.38465 12.7069 4.45099 12.6406L9.36416 7.72742C9.49681 7.59476 9.49681 7.37967 9.36416 7.24701C9.23147 7.11436 9.01644 7.11436 8.88372 7.24701Z" fill="#8A8989"/>
<path d="M10.4125 5.71845L9.79383 6.33715C9.66117 6.4698 9.66117 6.6849 9.79383 6.81759C9.86017 6.8839 9.9471 6.91709 10.034 6.91709C10.121 6.91709 10.2079 6.8839 10.2742 6.81759L10.8929 6.19889C11.0256 6.06624 11.0256 5.85114 10.893 5.71845C10.7603 5.58583 10.5452 5.58583 10.4125 5.71845Z" fill="#8A8989"/>
</svg>
