<svg width="14" height="17" viewBox="0 0 14 17" fill="none" xmlns="http://www.w3.org/2000/svg">
<path d="M9.32712 5.15211V4.89709C9.32712 4.49542 9.00196 4.17664 8.60667 4.17664H8.03287C7.8416 4.17664 7.6567 4.25313 7.52281 4.38702L5.42524 6.48461C5.14471 6.76514 5.14471 7.22419 5.42524 7.50472L7.52281 9.60229C7.6567 9.73617 7.8416 9.81269 8.03287 9.81269H8.60667C9.00834 9.81269 9.32712 9.48753 9.32712 9.09224V8.83722C9.32712 8.43556 9.65228 8.11677 10.0476 8.11677H13.28C13.6817 8.11677 14.0005 7.79161 14.0005 7.39632V7.00104V6.60575C14.0005 6.20409 13.6753 5.8853 13.28 5.8853H10.0476C9.65228 5.87893 9.32712 5.55377 9.32712 5.15211Z" fill="#BCBCBC"/>
<path d="M12.2362 3.71105V0.720532C12.2362 0.318821 11.911 0 11.5157 0H0.720532C0.318821 0 0 0.325198 0 0.720532V13.6263C0 13.8176 0.076514 14.0089 0.216794 14.1428L2.7227 16.6041C3.1818 17.0504 3.95333 16.7316 3.95333 16.0876V14.6529C3.95333 14.2512 4.27853 13.9324 4.67386 13.9324H11.5157C11.9174 13.9324 12.2362 13.6072 12.2362 13.2118V10.2915C12.2362 9.88975 11.911 9.57093 11.5157 9.57093C11.114 9.57093 10.7952 9.89612 10.7952 10.2915V11.7644C10.7952 12.1661 10.47 12.4849 10.0746 12.4849H4.68025C4.27854 12.4849 3.95971 12.1597 3.95971 11.7644V4.18289C3.95971 3.9916 3.8832 3.80031 3.74292 3.66641L2.74821 2.69083C2.28274 2.2381 2.60794 1.45381 3.25195 1.45381H10.081C10.4827 1.45381 10.8016 1.77901 10.8016 2.17434V3.71743C10.8016 4.11914 11.1268 4.43796 11.5221 4.43796C11.9174 4.43159 12.2362 4.10638 12.2362 3.71105Z" fill="#BCBCBC"/>
</svg>
