<svg width="20" height="20" viewBox="0 0 20 20" fill="none" xmlns="http://www.w3.org/2000/svg">
<path d="M14.983 8.99167V12.325C14.983 12.5417 14.9747 12.75 14.9497 12.95C14.758 15.2 13.433 16.3167 10.9913 16.3167H10.658C10.4497 16.3167 10.2496 16.4167 10.1246 16.5833L9.12466 17.9167C8.683 18.5083 7.96632 18.5083 7.52465 17.9167L6.52464 16.5833C6.41631 16.4417 6.17466 16.3167 5.99132 16.3167H5.65799C2.99966 16.3167 1.66632 15.6583 1.66632 12.325V8.99167C1.66632 6.55001 2.79133 5.22501 5.03299 5.03334C5.23299 5.00834 5.44133 5 5.65799 5H10.9913C13.6497 5 14.983 6.33334 14.983 8.99167Z" stroke="#121212" stroke-width="1.25" stroke-miterlimit="10" stroke-linecap="round" stroke-linejoin="round"/>
<path d="M18.3167 5.65836V8.9917C18.3167 11.4417 17.1917 12.7584 14.95 12.95C14.975 12.75 14.9834 12.5417 14.9834 12.325V8.9917C14.9834 6.33336 13.65 5.00002 10.9917 5.00002H5.65839C5.44172 5.00002 5.23339 5.00836 5.03339 5.03336C5.22505 2.79169 6.55005 1.66669 8.99172 1.66669H14.325C16.9834 1.66669 18.3167 3.00003 18.3167 5.65836Z" stroke="#121212" stroke-width="1.25" stroke-miterlimit="10" stroke-linecap="round" stroke-linejoin="round"/>
<path d="M11.2462 11.0417H11.2537" stroke="#121212" stroke-width="1.66667" stroke-linecap="round" stroke-linejoin="round"/>
<path d="M8.3296 11.0417H8.3371" stroke="#121212" stroke-width="1.66667" stroke-linecap="round" stroke-linejoin="round"/>
<path d="M5.41292 11.0417H5.42042" stroke="#121212" stroke-width="1.66667" stroke-linecap="round" stroke-linejoin="round"/>
</svg>
