<svg width="24" height="24" viewBox="0 0 24 24" fill="none" xmlns="http://www.w3.org/2000/svg">
<path d="M10 6H7C6.44772 6 6 6.44772 6 7V10" stroke="#121212" stroke-linecap="round" stroke-linejoin="round"/>
<path d="M17 6H15C14.4477 6 14 6.44772 14 7V9C14 9.55228 14.4477 10 15 10H17C17.5523 10 18 9.55228 18 9V7C18 6.44772 17.5523 6 17 6Z" stroke="#121212" stroke-linecap="round" stroke-linejoin="round"/>
<path d="M18 14V17C18 17.5523 17.5523 18 17 18H14" stroke="#121212" stroke-linecap="round" stroke-linejoin="round"/>
<path d="M9 14H7C6.44772 14 6 14.4477 6 15V17C6 17.5523 6.44772 18 7 18H9C9.55228 18 10 17.5523 10 17V15C10 14.4477 9.55228 14 9 14Z" stroke="#121212" stroke-linecap="round" stroke-linejoin="round"/>
</svg>
