<svg width="308" height="140" viewBox="0 0 308 140" fill="none" xmlns="http://www.w3.org/2000/svg">
<mask id="path-1-inside-1_4092_17889" fill="white">
<path d="M115 47.7148L150.021 41.9997L156.785 83.449L121.764 89.1642L115 47.7148Z"/>
</mask>
<path d="M115 47.7148L150.021 41.9997L156.785 83.449L121.764 89.1642L115 47.7148Z" fill="#F6F9FF"/>
<path d="M115 47.7148L114.678 45.741L112.704 46.0631L113.026 48.037L115 47.7148ZM150.021 41.9997L151.995 41.6776L151.673 39.7037L149.699 40.0258L150.021 41.9997ZM156.785 83.449L157.108 85.4229L159.081 85.1008L158.759 83.1269L156.785 83.449ZM121.764 89.1642L119.79 89.4863L120.112 91.4602L122.086 91.1381L121.764 89.1642ZM115.322 49.6887L150.343 43.9736L149.699 40.0258L114.678 45.741L115.322 49.6887ZM148.047 42.3218L154.812 83.7711L158.759 83.1269L151.995 41.6776L148.047 42.3218ZM156.463 81.4751L121.442 87.1903L122.086 91.1381L157.108 85.4229L156.463 81.4751ZM123.738 88.842L116.974 47.3927L113.026 48.037L119.79 89.4863L123.738 88.842Z" fill="#121212" mask="url(#path-1-inside-1_4092_17889)"/>
<mask id="path-3-inside-2_4092_17889" fill="white">
<path fill-rule="evenodd" clip-rule="evenodd" d="M192.164 24.6195L158.306 14L145.737 54.0728L179.595 64.6923L192.164 24.6195Z"/>
</mask>
<path fill-rule="evenodd" clip-rule="evenodd" d="M192.164 24.6195L158.306 14L145.737 54.0728L179.595 64.6923L192.164 24.6195Z" fill="#F6F9FF"/>
<path d="M158.306 14L158.904 12.0917L156.996 11.4931L156.397 13.4015L158.306 14ZM192.164 24.6195L194.072 25.2181L194.671 23.3098L192.762 22.7112L192.164 24.6195ZM145.737 54.0728L143.829 53.4742L143.23 55.3826L145.138 55.9811L145.737 54.0728ZM179.595 64.6923L178.997 66.6007L180.905 67.1992L181.504 65.2909L179.595 64.6923ZM157.707 15.9083L191.565 26.5279L192.762 22.7112L158.904 12.0917L157.707 15.9083ZM147.645 54.6713L160.214 14.5985L156.397 13.4015L143.829 53.4742L147.645 54.6713ZM180.194 62.784L146.336 52.1644L145.138 55.9811L178.997 66.6007L180.194 62.784ZM190.256 24.021L177.687 64.0938L181.504 65.2909L194.072 25.2181L190.256 24.021Z" fill="#121212" mask="url(#path-3-inside-2_4092_17889)"/>
<mask id="path-5-inside-3_4092_17889" fill="white">
<path fill-rule="evenodd" clip-rule="evenodd" d="M190.803 76.3644L157.188 65L143.737 104.786L177.353 116.15L190.803 76.3644Z"/>
</mask>
<path fill-rule="evenodd" clip-rule="evenodd" d="M190.803 76.3644L157.188 65L143.737 104.786L177.353 116.15L190.803 76.3644Z" fill="#F6F9FF"/>
<path d="M157.188 65L157.828 63.1053L155.933 62.4648L155.293 64.3595L157.188 65ZM190.803 76.3644L192.698 77.005L193.338 75.1103L191.444 74.4698L190.803 76.3644ZM143.737 104.786L141.843 104.145L141.202 106.04L143.097 106.68L143.737 104.786ZM177.353 116.15L176.712 118.045L178.607 118.685L179.247 116.791L177.353 116.15ZM156.547 66.8947L190.163 78.2591L191.444 74.4698L157.828 63.1053L156.547 66.8947ZM145.632 105.426L159.082 65.6405L155.293 64.3595L141.843 104.145L145.632 105.426ZM177.993 114.255L144.378 102.891L143.097 106.68L176.712 118.045L177.993 114.255ZM188.908 75.7239L175.458 115.509L179.247 116.791L192.698 77.005L188.908 75.7239Z" fill="#121212" mask="url(#path-5-inside-3_4092_17889)"/>
<path d="M133.612 66.3192L135.204 66.0595L136.501 74.0077L134.909 74.2675L134.131 69.4985L132.539 69.7583L132.798 71.348L128.023 72.1273L127.245 67.3584L128.836 67.0986L129.096 68.6882L130.688 68.4284L130.428 66.8388L133.612 66.3192ZM131.274 62.0072L131.015 60.4175L129.423 60.6773L129.682 62.267L131.274 62.0072ZM128.542 75.3066L130.133 75.0468L129.874 73.4572L128.282 73.7169L128.542 75.3066ZM131.725 74.787L133.317 74.5273L133.058 72.9376L131.466 73.1974L131.725 74.787ZM140.825 60.4485L140.566 58.8589L138.974 59.1186L139.233 60.7083L140.825 60.4485ZM143.231 55.16L144.528 63.1082L136.569 64.4071L135.271 56.4589L143.231 55.16ZM141.898 57.0094L137.123 57.7888L137.901 62.5577L142.677 61.7784L141.898 57.0094ZM132.088 56.9785L133.68 56.7187L134.977 64.6669L127.017 65.9658L125.72 58.0176L132.088 56.9785ZM132.347 58.5681L127.572 59.3474L128.35 64.1164L133.125 63.3371L132.347 58.5681ZM143.163 64.7606L144.755 64.5008L146.052 72.449L138.093 73.7479L136.796 65.7997L143.163 64.7606ZM143.423 66.3502L138.647 67.1295L139.425 71.8985L144.201 71.1192L143.423 66.3502ZM142.35 69.7893L142.09 68.1996L140.498 68.4594L140.758 70.0491L142.35 69.7893Z" fill="#ABBBDC"/>
<path d="M166.582 38.9804L168.121 39.4631L165.711 47.1474L164.172 46.6647L165.618 42.0541L164.079 41.5714L163.597 43.1083L158.98 41.6602L160.426 37.0496L161.965 37.5323L161.483 39.0692L163.022 39.5519L163.504 38.015L166.582 38.9804ZM166.429 34.0777L166.911 32.5409L165.372 32.0582L164.89 33.595L166.429 34.0777ZM158.016 44.7339L159.555 45.2166L160.037 43.6797L158.498 43.197L158.016 44.7339ZM161.094 45.6993L162.633 46.182L163.115 44.6452L161.576 44.1624L161.094 45.6993ZM175.663 36.974L176.145 35.4371L174.606 34.9544L174.124 36.4913L175.663 36.974ZM180.187 33.3288L177.777 41.0131L170.082 38.5996L172.492 30.9153L180.187 33.3288ZM178.166 34.383L173.549 32.9348L172.103 37.5454L176.72 38.9935L178.166 34.383ZM169.414 29.9499L170.953 30.4326L168.543 38.1169L160.848 35.7033L163.258 28.019L169.414 29.9499ZM168.932 31.4867L164.315 30.0386L162.869 34.6492L167.486 36.0973L168.932 31.4867ZM175.816 41.8767L177.355 42.3594L174.945 50.0437L167.25 47.6301L169.66 39.9458L175.816 41.8767ZM175.334 43.4135L170.717 41.9654L169.271 46.576L173.888 48.0241L175.334 43.4135ZM172.831 46.0045L173.313 44.4677L171.774 43.985L171.292 45.5218L172.831 46.0045Z" fill="#ABBBDC"/>
<path d="M164.91 90.1571L166.438 90.6737L163.859 98.3029L162.331 97.7863L163.878 93.2088L162.35 92.6922L161.834 94.2181L157.25 92.6684L158.798 88.0908L160.326 88.6074L159.81 90.1332L161.338 90.6498L161.854 89.124L164.91 90.1571ZM164.866 85.2522L165.381 83.7264L163.853 83.2098L163.338 84.7357L164.866 85.2522ZM156.219 95.72L157.747 96.2366L158.263 94.7108L156.735 94.1942L156.219 95.72ZM159.275 96.7532L160.803 97.2697L161.319 95.7439L159.791 95.2273L159.275 96.7532ZM174.033 88.3516L174.549 86.8258L173.021 86.3092L172.505 87.835L174.033 88.3516ZM178.637 84.8072L176.058 92.4364L168.418 89.8536L170.997 82.2244L178.637 84.8072ZM176.593 85.8165L172.009 84.2668L170.462 88.8443L175.046 90.394L176.593 85.8165ZM167.941 81.1913L169.469 81.7078L166.89 89.337L159.25 86.7542L161.829 79.125L167.941 81.1913ZM167.425 82.7171L162.841 81.1674L161.294 85.7449L165.878 87.2946L167.425 82.7171ZM174.078 93.2565L175.606 93.7731L173.027 101.402L165.387 98.8194L167.966 91.1902L174.078 93.2565ZM173.562 94.7823L168.978 93.2326L167.431 97.8102L172.014 99.3599L173.562 94.7823ZM171.002 97.3174L171.518 95.7916L169.99 95.275L169.474 96.8009L171.002 97.3174Z" fill="#ABBBDC"/>
<path d="M227 20L227.252 20.6819C229.835 27.6617 235.338 33.1649 242.318 35.7477L243 36L242.318 36.2523C235.338 38.8351 229.835 44.3383 227.252 51.3181L227 52L226.748 51.3181C224.165 44.3383 218.662 38.8351 211.682 36.2523L211 36L211.682 35.7477C218.662 33.1649 224.165 27.6617 226.748 20.6819L227 20Z" fill="#1BEBA0"/>
<path d="M57.5 98C59.3 102.865 63.1354 106.7 68 108.5C63.1354 110.3 59.3 114.135 57.5 119C55.7 114.135 51.8646 110.3 47 108.5C51.8646 106.7 55.7 102.865 57.5 98Z" fill="#0C5EFF"/>
</svg>
