<svg width="16" height="16" viewBox="0 0 16 16" fill="none" xmlns="http://www.w3.org/2000/svg">
<path d="M7.7972 12V4H8.37063V12H7.7972ZM9.04196 6.8C9.02331 6.59167 8.9359 6.42917 8.77972 6.3125C8.62587 6.19583 8.39161 6.1375 8.07692 6.1375C7.87646 6.1375 7.71212 6.15937 7.58392 6.20312C7.45804 6.24479 7.3648 6.30208 7.3042 6.375C7.24359 6.44792 7.21212 6.53125 7.20979 6.625C7.20513 6.70208 7.22028 6.77188 7.25524 6.83438C7.29254 6.89479 7.35082 6.95 7.43007 7C7.50932 7.04792 7.61072 7.09167 7.73427 7.13125C7.85781 7.17083 8.00466 7.20625 8.17483 7.2375L8.76224 7.35C9.15851 7.425 9.49767 7.52396 9.77972 7.64688C10.0618 7.76979 10.2925 7.91458 10.472 8.08125C10.6515 8.24583 10.7832 8.43125 10.8671 8.6375C10.9534 8.84375 10.9977 9.06875 11 9.3125C10.9977 9.73333 10.88 10.0896 10.6469 10.3813C10.4138 10.6729 10.0804 10.8948 9.64685 11.0469C9.21562 11.199 8.69697 11.275 8.09091 11.275C7.46853 11.275 6.92541 11.1927 6.46154 11.0281C6 10.8635 5.64103 10.6104 5.38462 10.2688C5.13054 9.925 5.00233 9.48542 5 8.95H6.84615C6.85781 9.14583 6.91259 9.31042 7.01049 9.44375C7.10839 9.57708 7.24592 9.67813 7.42308 9.74688C7.60256 9.81563 7.81585 9.85 8.06294 9.85C8.2704 9.85 8.44406 9.82708 8.58392 9.78125C8.72378 9.73542 8.82984 9.67188 8.9021 9.59062C8.97436 9.50938 9.01166 9.41667 9.01399 9.3125C9.01166 9.21458 8.97552 9.12917 8.90559 9.05625C8.838 8.98125 8.72611 8.91458 8.56993 8.85625C8.41375 8.79583 8.2028 8.73958 7.93706 8.6875L7.22378 8.55C6.58974 8.42708 6.08974 8.22188 5.72378 7.93438C5.36014 7.64479 5.17949 7.25 5.18182 6.75C5.17949 6.34375 5.3007 5.98854 5.54545 5.68438C5.79254 5.37813 6.13403 5.13958 6.56993 4.96875C7.00816 4.79792 7.51049 4.7125 8.07692 4.7125C8.65501 4.7125 9.15501 4.79896 9.57692 4.97188C9.99883 5.14479 10.324 5.38854 10.5524 5.70313C10.7832 6.01563 10.8998 6.38125 10.9021 6.8H9.04196Z" fill="#0C5EFF"/>
<circle cx="8" cy="8" r="7" stroke="#0C5EFF" stroke-width="2"/>
</svg>
