<svg width="112" height="54" viewBox="0 0 112 54" fill="none" xmlns="http://www.w3.org/2000/svg">
<circle cx="47" cy="18.5" r="17.5" fill="#F6B40A" stroke="black" stroke-width="2"/>
<path fill-rule="evenodd" clip-rule="evenodd" d="M74.4706 52.9999H96.8825L96.8971 52.9999L96.9116 52.9999H97.2647V52.995C104.607 52.8002 110.5 46.7867 110.5 39.3969C110.5 31.8842 104.41 25.794 96.8971 25.794L96.8381 25.7941C94.7834 15.3165 85.5501 7.41162 74.4706 7.41162C62.1413 7.41162 52.0984 17.2004 51.6894 29.4301C50.4208 28.9801 49.0552 28.7352 47.6324 28.7352C47.0754 28.7352 46.5272 28.7727 45.9902 28.8454C43.289 23.0313 37.3975 18.9999 30.5645 18.9999C21.3692 18.9999 13.8791 26.3004 13.5742 35.4214C12.628 35.0858 11.6095 34.9031 10.5484 34.9031C5.5511 34.9031 1.5 38.9542 1.5 43.9515C1.5 48.9488 5.5511 52.9999 10.5484 52.9999C10.6401 52.9999 10.7315 52.9985 10.8226 52.9958V52.9999H47.5645V52.9997C47.5871 52.9998 47.6097 52.9999 47.6324 52.9999C47.7553 52.9999 47.8779 52.998 48 52.9944V52.9999H74.4706Z" fill="#E4EDFF"/>
<path d="M96.8825 52.9999L96.883 51.9999H96.8825V52.9999ZM96.8971 52.9999L96.8965 53.9999H96.8976L96.8971 52.9999ZM96.9116 52.9999V51.9999H96.9111L96.9116 52.9999ZM97.2647 52.9999V53.9999H98.2647V52.9999H97.2647ZM97.2647 52.995L97.2382 51.9953L96.2647 52.0212V52.995H97.2647ZM96.8971 25.794V24.794L96.8949 24.794L96.8971 25.794ZM96.8381 25.7941L95.8568 25.9865L96.0155 26.7959L96.8402 26.7941L96.8381 25.7941ZM51.6894 29.4301L51.3551 30.3726L52.6432 30.8295L52.6889 29.4635L51.6894 29.4301ZM45.9902 28.8454L45.0832 29.2667L45.3938 29.9352L46.1242 29.8363L45.9902 28.8454ZM13.5742 35.4214L13.2398 36.3639L14.5279 36.8208L14.5736 35.4548L13.5742 35.4214ZM10.8226 52.9958H11.8226V51.9656L10.7928 51.9962L10.8226 52.9958ZM10.8226 52.9999H9.82257V53.9999H10.8226V52.9999ZM47.5645 52.9999V53.9999H48.5645V52.9999H47.5645ZM47.5645 52.9997L47.5699 51.9997L46.5645 51.9943V52.9997H47.5645ZM48 52.9944H49V51.9642L47.9703 51.9948L48 52.9944ZM48 52.9999H47V53.9999H48V52.9999ZM96.8825 51.9999H74.4706V53.9999H96.8825V51.9999ZM96.8976 51.9999L96.883 51.9999L96.882 53.9999L96.8965 53.9999L96.8976 51.9999ZM96.9111 51.9999L96.8965 51.9999L96.8976 53.9999L96.9121 53.9999L96.9111 51.9999ZM97.2647 51.9999H96.9116V53.9999H97.2647V51.9999ZM96.2647 52.995V52.9999H98.2647V52.995H96.2647ZM109.5 39.3969C109.5 46.2433 104.041 51.8148 97.2382 51.9953L97.2912 53.9946C105.174 53.7855 111.5 47.3301 111.5 39.3969H109.5ZM96.8971 26.794C103.857 26.794 109.5 32.4365 109.5 39.3969H111.5C111.5 31.3319 104.962 24.794 96.8971 24.794V26.794ZM96.8402 26.7941L96.8992 26.794L96.8949 24.794L96.836 24.7941L96.8402 26.7941ZM74.4706 8.41162C85.0629 8.41162 93.8923 15.9691 95.8568 25.9865L97.8194 25.6017C95.6745 14.6639 86.0373 6.41162 74.4706 6.41162V8.41162ZM52.6889 29.4635C53.0798 17.7709 62.6824 8.41162 74.4706 8.41162V6.41162C61.6002 6.41162 51.1169 16.6298 50.69 29.3967L52.6889 29.4635ZM47.6324 29.7352C48.9397 29.7352 50.1924 29.9601 51.3551 30.3726L52.0237 28.4876C50.6493 28.0001 49.1707 27.7352 47.6324 27.7352V29.7352ZM46.1242 29.8363C46.617 29.7696 47.1204 29.7352 47.6324 29.7352V27.7352C47.0304 27.7352 46.4374 27.7757 45.8561 27.8544L46.1242 29.8363ZM30.5645 19.9999C36.9941 19.9999 42.5399 23.7923 45.0832 29.2667L46.8971 28.424C44.0381 22.2702 37.801 17.9999 30.5645 17.9999V19.9999ZM14.5736 35.4548C14.8606 26.871 21.9103 19.9999 30.5645 19.9999V17.9999C20.8282 17.9999 12.8977 25.7298 12.5747 35.388L14.5736 35.4548ZM10.5484 35.9031C11.4941 35.9031 12.3996 36.0658 13.2398 36.3639L13.9085 34.4789C12.8565 34.1058 11.725 33.9031 10.5484 33.9031V35.9031ZM2.5 43.9515C2.5 39.5065 6.10338 35.9031 10.5484 35.9031V33.9031C4.99881 33.9031 0.5 38.4019 0.5 43.9515H2.5ZM10.5484 51.9999C6.10338 51.9999 2.5 48.3965 2.5 43.9515H0.5C0.5 49.5011 4.99881 53.9999 10.5484 53.9999V51.9999ZM10.7928 51.9962C10.7117 51.9987 10.6302 51.9999 10.5484 51.9999V53.9999C10.65 53.9999 10.7513 53.9984 10.8523 53.9954L10.7928 51.9962ZM11.8226 52.9999V52.9958H9.82257V52.9999H11.8226ZM47.5645 51.9999H10.8226V53.9999H47.5645V51.9999ZM46.5645 52.9997V52.9999H48.5645V52.9997H46.5645ZM47.6324 51.9999C47.6115 51.9999 47.5907 51.9998 47.5699 51.9997L47.5591 53.9997C47.5835 53.9998 47.6079 53.9999 47.6324 53.9999V51.9999ZM47.9703 51.9948C47.8581 51.9982 47.7454 51.9999 47.6324 51.9999V53.9999C47.7653 53.9999 47.8977 53.9979 48.0297 53.994L47.9703 51.9948ZM49 52.9999V52.9944H47V52.9999H49ZM74.4706 51.9999H48V53.9999H74.4706V51.9999Z" fill="black"/>
</svg>
