<?xml version="1.0" encoding="utf-8"?>
<!-- Generator: Adobe Illustrator 26.3.1, SVG Export Plug-In . SVG Version: 6.00 Build 0)  -->
<svg version="1.1" id="Layer_1" xmlns="http://www.w3.org/2000/svg" xmlns:xlink="http://www.w3.org/1999/xlink" x="0px" y="0px"
	 viewBox="0 0 100 100" style="enable-background:new 0 0 100 100;" xml:space="preserve">
<style type="text/css">
	.st0{fill:#FFFFFF;}
</style>
<rect class="st0" width="100" height="100"/>
<path d="M21.8,8.5h53.7c8.8,0,16,7.2,16,16v53.7c0,7.3-5.9,13.3-13.3,13.3H21.8c-7.3,0-13.3-5.9-13.3-13.3V21.8
	C8.5,14.5,14.5,8.5,21.8,8.5z"/>
<path class="st0" d="M25.4,59.3v12.1h18.5v-2.7H28.1v-9.5H25.4z M71.9,59.3v9.5H56.1v2.7h18.5V59.3H71.9z M44,40.8v18.5h12.1v-2.4
	h-9.5v-16H44z M25.4,28.6v12.1h2.7v-9.4h15.8v-2.7L25.4,28.6L25.4,28.6z M56.1,28.6v2.7h15.8v9.5h2.7V28.6H56.1z"/>
</svg>
